<svg id="Bold" enable-background="new 0 0 32 32" height="512" viewBox="0 0 32 32" width="512" xmlns="http://www.w3.org/2000/svg"><path d="m26 32h-20c-3.314 0-6-2.686-6-6v-20c0-3.314 2.686-6 6-6h20c3.314 0 6 2.686 6 6v20c0 3.314-2.686 6-6 6z" fill="#ffe6e2"/><path d="m8.808 10.783v11.129h3.832v2.088h2.093l2.089-2.088h3.137l4.182-4.172v-9.74h-14.288zm2.439-1.393h11.502v7.653l-2.44 2.435h-3.834l-2.089 2.085v-2.085h-3.139z" fill="#fc573b"/><g fill="#fd907e"><path d="m15.082 12.175h1.393v4.173h-1.393z"/><path d="m18.914 12.175h1.394v4.173h-1.394z"/></g></svg>